HIERARCHY
ROOT Hips
{
 OFFSET 0.000000 0.000000 0.000000
 CHANNELS 6 Xposition Yposition Zposition Yrotation Xrotation Zrotation
 JOINT Chest
 {
  OFFSET 0.000000 9.857222 0.000240
  CHANNELS 3 Yrotation Xrotation Zrotation
  JOINT Chest2
  {
   OFFSET 0.000000 10.876940 -0.000436
   CHANNELS 3 Yrotation Xrotation Zrotation
   JOINT Chest3
   {
    OFFSET 0.000000 9.827798 0.000000
    CHANNELS 3 Yrotation Xrotation Zrotation
    JOINT Chest4
    {
     OFFSET 0.000000 9.827798 0.000000
     CHANNELS 3 Yrotation Xrotation Zrotation
     JOINT Neck
     {
      OFFSET 0.000000 13.831992 0.000000
      CHANNELS 3 Yrotation Xrotation Zrotation
      JOINT Head
      {
       OFFSET 0.000000 9.147643 -0.001036
       CHANNELS 3 Yrotation Xrotation Zrotation
       End Site
       {
        OFFSET 0.000000 17.515799 -0.000541
       }
      }
     }
     JOINT RightCollar
     {
      OFFSET -3.001579 7.717577 0.000000
      CHANNELS 3 Yrotation Xrotation Zrotation
      JOINT RightShoulder
      {
       OFFSET -14.002642 0.000000 0.000000
       CHANNELS 3 Yrotation Xrotation Zrotation
       JOINT RightElbow
       {
        OFFSET -30.053852 0.000000 0.000000
        CHANNELS 3 Yrotation Xrotation Zrotation
        JOINT RightWrist
        {
         OFFSET -24.564923 0.000000 -0.000000
         CHANNELS 3 Yrotation Xrotation Zrotation
         End Site
         {
          OFFSET -18.334355 0.000000 0.000000
         }
        }
       }
      }
     }
     JOINT LeftCollar
     {
      OFFSET 3.001579 7.717577 0.000000
      CHANNELS 3 Yrotation Xrotation Zrotation
      JOINT LeftShoulder
      {
       OFFSET 14.002642 0.000000 0.000000
       CHANNELS 3 Yrotation Xrotation Zrotation
       JOINT LeftElbow
       {
        OFFSET 30.053852 0.000000 0.000000
        CHANNELS 3 Yrotation Xrotation Zrotation
        JOINT LeftWrist
        {
         OFFSET 24.564923 0.000000 -0.000000
         CHANNELS 3 Yrotation Xrotation Zrotation
         End Site
         {
          OFFSET 18.334355 0.000000 0.000000
         }
        }
       }
      }
     }
    }
   }
  }
 }
 JOINT RightHip
 {
  OFFSET -8.003235 -0.001175 -0.000120
  CHANNELS 3 Yrotation Xrotation Zrotation
  JOINT RightKnee
  {
   OFFSET 0.000000 -41.759727 0.000113
   CHANNELS 3 Yrotation Xrotation Zrotation
   JOINT RightAnkle
   {
    OFFSET 0.000000 -40.728748 0.000159
    CHANNELS 3 Yrotation Xrotation Zrotation
    JOINT RightToe
    {
     OFFSET 0.000000 -6.515296 14.732841
     CHANNELS 3 Yrotation Xrotation Zrotation
     End Site
     {
      OFFSET 0.000000 -1.502839 6.412115
     }
    }
   }
  }
 }
 JOINT LeftHip
 {
  OFFSET 8.003235 -0.001175 -0.000120
  CHANNELS 3 Yrotation Xrotation Zrotation
  JOINT LeftKnee
  {
   OFFSET 0.000000 -41.759727 0.000113
   CHANNELS 3 Yrotation Xrotation Zrotation
   JOINT LeftAnkle
   {
    OFFSET 0.000000 -40.728748 0.000159
    CHANNELS 3 Yrotation Xrotation Zrotation
    JOINT LeftToe
    {
     OFFSET 0.000000 -6.515296 14.732841
     CHANNELS 3 Yrotation Xrotation Zrotation
     End Site
     {
      OFFSET 0.000000 -1.502839 6.412115
     }
    }
   }
  }
 }
}
MOTION
Frames: 7
Frame Time: 0.016667
0.000000 88.822259 0.000000 0.000000 -5.826342 0.000000 0.000000 11.116423 0.000000 0.000000 -5.290081 0.000000 0.000000 0.000000 0.000000 0.000000 0.000000 0.000000 0.000000 12.665069 0.000000 0.000000 0.575450 0.000000 0.000000 0.000000 0.000000 0.000000 0.000000 0.000000 2.337306 0.000000 0.000000 -2.337306 0.000000 0.000000 0.000000 0.000000 0.000000 0.000000 0.000000 0.000000 -2.337306 0.000000 0.000000 2.337306 0.000000 0.000000 0.000000 8.578828 0.000000 0.000000 1.905768 0.000000 0.000000 -4.658254 0.000000 0.000000 0.000000 0.000000 0.000000 8.578828 0.000000 0.000000 1.905768 0.000000 0.000000 -4.658254 0.000000 0.000000 0.000000 0.000000
1.895291 90.272134 12.963690 -31.905948 -5.946538 0.009686 4.156992 -4.162255 -0.368857 1.885903 -1.813654 -0.140718 1.885903 -1.813654 -0.140718 1.413891 -1.360690 -0.099932 2.383692 26.207430 0.285144 4.189345 12.503971 -0.029115 3.406914 22.134384 14.374458 36.377319 -2.789371 81.210632 16.734899 2.835797 -0.423893 -2.651950 -1.341209 -10.514680 -24.149166 23.924765 -20.470799 -36.330097 20.922918 -78.176549 -41.828242 -15.461974 8.050193 9.162410 4.716293 9.719462 -2.325561 5.294724 1.101931 3.652981 6.290448 -3.897022 0.466779 -5.817922 1.122952 -0.025688 -0.087385 -0.005200 -36.087178 15.704114 -3.259673 39.871717 2.475605 -8.994206 8.535098 -9.191283 0.066261 0.051894 -0.047689 0.054299
1.904903 90.277060 12.943641 -31.996012 -6.019713 0.038500 4.110565 -4.111280 -0.371277 1.874237 -1.802190 -0.139056 1.874237 -1.802190 -0.139056 1.405152 -1.352084 -0.098756 2.411451 26.215446 0.258201 4.244914 12.520264 -0.083190 3.352875 22.085927 14.355431 36.195621 -2.811199 80.940568 17.587018 3.115038 -0.393865 -2.646616 -1.327306 -10.794197 -24.193743 23.916330 -20.495778 -36.592713 20.937975 -78.274476 -41.838393 -15.757020 7.885808 9.032412 4.626167 9.645642 -2.271267 5.380277 1.079973 3.652348 6.226509 -3.891472 0.439581 -5.762515 1.136786 -0.011322 -0.047468 -0.021437 -36.303711 15.690698 -3.372230 39.949154 2.535323 -8.974002 8.689194 -9.209209 0.047859 0.024609 -0.050444 0.045936
1.915526 90.284749 12.925305 -32.070682 -6.079824 0.065379 4.048250 -4.063267 -0.371308 1.861374 -1.788144 -0.132879 1.861374 -1.788144 -0.132879 1.395528 -1.341528 -0.094205 2.440765 26.223533 0.228529 4.303866 12.536848 -0.142470 3.304063 22.047461 14.326359 35.968781 -2.854901 80.676201 18.523856 3.409088 -0.419450 -2.634830 -1.302535 -11.088977 -24.241555 23.912474 -20.531645 -36.896739 20.942208 -78.379081 -41.829861 -16.218621 7.728235 8.894853 4.548045 9.548784 -2.179041 5.451984 1.065982 3.700290 6.171829 -3.887149 0.327150 -5.706874 1.153200 0.016356 -0.017605 -0.027296 -36.514778 15.666090 -3.474995 40.019436 2.586047 -8.947325 8.798940 -9.215823 0.043292 -0.021648 -0.057307 0.028247
1.917957 90.293079 12.906502 -32.126815 -6.132747 0.080013 3.970372 -4.020182 -0.360098 1.845952 -1.772864 -0.124570 1.845952 -1.772864 -0.124570 1.383992 -1.330039 -0.088065 2.474441 26.228000 0.200896 4.370162 12.546779 -0.199195 3.268986 22.014731 14.296911 35.719867 -2.894892 80.445327 19.521112 3.674439 -0.506312 -2.613836 -1.274723 -11.371084 -24.277198 23.911035 -20.562086 -37.241087 20.945879 -78.502939 -41.810201 -16.764722 7.603036 8.748564 4.491317 9.440137 -2.059504 5.513077 1.071372 3.705431 6.133413 -3.880620 0.254330 -5.662236 1.161823 0.041923 0.003755 -0.031900 -36.697840 15.650047 -3.550263 40.077629 2.633051 -8.923207 8.880578 -9.217868 0.029296 -0.049397 -0.065935 0.017615
1.917685 90.300786 12.887320 -32.104744 -6.168686 0.102280 3.833139 -3.991897 -0.361286 1.830242 -1.753786 -0.117484 1.830242 -1.753786 -0.117484 1.372237 -1.315706 -0.082853 2.506933 26.226280 0.178973 4.433106 12.545047 -0.245653 3.241984 21.981969 14.271113 35.486355 -2.914383 80.247849 20.552434 3.859032 -0.609210 -2.585994 -1.245071 -11.646293 -24.314318 23.921827 -20.586975 -37.575623 20.913144 -78.627508 -41.765334 -17.218541 7.492301 8.637634 4.439101 9.353799 -2.021328 5.557150 1.056376 3.648045 6.101863 -3.872037 0.230551 -5.647338 1.173427 0.066637 0.039514 -0.037996 -36.903700 15.628725 -3.599107 40.101673 2.669488 -8.931443 8.976476 -9.203392 0.026604 -0.077221 -0.084497 0.004222
1.904041 90.308791 12.864021 -32.093526 -6.223337 0.112397 3.724708 -3.952592 -0.348408 1.814793 -1.727911 -0.111451 1.814793 -1.727911 -0.111451 1.360676 -1.296278 -0.078450 2.539031 26.213979 0.167444 4.493094 12.523336 -0.273813 3.219013 21.944996 14.256492 35.323726 -2.908168 80.096946 21.565299 3.929884 -0.760114 -2.556810 -1.223502 -11.880407 -24.348048 23.934497 -20.602571 -37.863700 20.861342 -78.736746 -41.656106 -17.554653 7.394555 8.527458 4.395849 9.263069 -2.008479 5.627467 1.044110 3.558810 6.057998 -3.846367 0.278158 -5.609497 1.182801 0.068790 0.051695 -0.055787 -37.035242 15.644999 -3.613831 40.139259 2.714360 -8.954467 9.021562 -9.177189 0.003696 -0.066427 -0.110352 0.005643
